<svg xmlns="http://www.w3.org/2000/svg" width="430" height="430" style="width:100%;height:100%;transform:translate3d(0,0,0);content-visibility:visible" viewBox="0 0 430 430"><defs><clipPath id="l"><path d="M0 0h430v430H0z"/></clipPath><clipPath id="m"><path d="M0 0h500v500H0z"/></clipPath><clipPath id="c"><path d="M0 0h500v500H0z"/></clipPath><clipPath id="d"><path d="M0 0h500v500H0z"/></clipPath><clipPath id="j"><path d="M0 0h250v3172H0z"/></clipPath><clipPath id="k"><path d="M0 0h250v3172H0z"/></clipPath><clipPath id="h"><path d="M0 0h250v3172H0z"/></clipPath><clipPath id="i"><path d="M0 0h250v3172H0z"/></clipPath><clipPath id="f"><path d="M0 0h250v3172H0z"/></clipPath><clipPath id="g"><path d="M0 0h250v3172H0z"/></clipPath><mask id="e" mask-type="alpha"><use xmlns:ns1="http://www.w3.org/1999/xlink" ns1:href="#a"/></mask><mask id="n" mask-type="alpha"><use xmlns:ns2="http://www.w3.org/1999/xlink" ns2:href="#b"/></mask><g id="b" fill-opacity="0" stroke-linecap="round" stroke-linejoin="round" clip-path="url(#c)" style="display:block"><g stroke="#08A88A" stroke-width="24.99" clip-path="url(#d)" mask="url(#e)" style="display:block"><g clip-path="url(#f)" style="display:block" transform="translate(194.897 167.86) scale(.44082)"><path d="M-308.288 5220.314h6.973c25.522 0 46.211-20.689 46.211-46.211v-72.756c0-25.522-20.689-46.213-46.211-46.213h-6.973c-25.522 0-46.212 20.691-46.212 46.213v72.756c0 25.522 20.69 46.211 46.212 46.211z" class="secondary" style="display:block" transform="translate(429.802 -4951.914)"/><g style="display:block"><path d="m171.802 462.74-.333 23.894c-.623 44.588-32.143 82.756-75.81 91.797 0 0 0 0 0 0" class="secondary"/><path d="M171.812 461.748c0-26.876-20.958-48.664-46.812-48.664s-46.813 21.787-46.813 48.664c0 26.877 20.959 48.664 46.813 48.664 25.854 0 46.812-21.788 46.812-48.664z" class="secondary"/></g><g style="display:block"><path d="M164.128 771.344c0 21.611-17.518 39.13-39.128 39.13s-39.13-17.52-39.13-39.13c0-21.61 17.52-39.129 39.13-39.129 21.61 0 39.128 17.518 39.128 39.13z" class="secondary"/><path d="M147.031 803.661c16.253 8.084 27.41 24.879 27.41 44.291 0 27.326-22.115 49.443-49.441 49.443-27.326 0-49.443-22.117-49.443-49.443 0-19.412 11.158-36.207 27.411-44.29" class="secondary"/></g><path d="M1512.76 5964.154h78.15l-48.354 165.346" class="secondary" style="display:block" transform="translate(-1426.834 -4919.396)"/><g style="display:block"><path d="m78.373 1462.74.332-23.805c.62-44.422 32.024-82.446 75.527-91.454v-.001" class="secondary"/><path d="M78.363 1463.727c0 26.776 20.881 48.482 46.638 48.482 25.757 0 46.637-21.706 46.637-48.482s-20.88-48.482-46.637-48.482-46.638 21.706-46.638 48.482z" class="secondary"/></g><g style="display:block"><path d="m81.987 1742.65 4.155-82.68h78.07" class="secondary"/><path d="M81.987 1808.093c9.014 10.136 22.16 16.532 36.782 16.532 27.208 0 49.243-22.056 49.243-49.243 0-27.208-22.035-49.243-49.243-49.243-14.621 0-27.768 6.376-36.782 16.51" class="secondary"/></g><path d="M3434.325 5159.43h-105.564l82.115-107.936v165.852" class="secondary" style="display:block" transform="translate(-3256.543 -3076.07)"/><g style="display:block"><path d="M123.546 2364.918c27.609 0 49.999 18.944 49.999 42.198 0 23.234-22.378 42.073-49.987 42.073-21.73 0-40.22-11.669-47.104-27.965" class="secondary"/><path d="M81.026 2310.25c6.38-15.081 22.504-25.771 41.402-25.771 24.509 0 44.359 17.995 44.359 40.217 0 22.222-19.85 40.236-44.359 40.236m0 0h-9.948" class="secondary"/></g><path d="M1605.865 5216.88h-99.284l82.369-99.086c5.313-6.944 8.492-15.626 8.492-25.06 0-22.779-18.449-41.228-41.228-41.228-22.758 0-41.208 18.45-41.208 41.228" class="secondary" style="display:block" transform="translate(-1431.223 -2452.069)"/><path d="m566.629 5103.828 52.069-52.07v165" class="secondary" style="display:block" transform="translate(-479.663 -2140.069)"/></g><g clip-path="url(#g)" style="display:block" transform="translate(194.897 1545.973) scale(.44082)"><path d="M-308.288 5220.314h6.973c25.522 0 46.211-20.689 46.211-46.211v-72.756c0-25.522-20.689-46.213-46.211-46.213h-6.973c-25.522 0-46.212 20.691-46.212 46.213v72.756c0 25.522 20.69 46.211 46.212 46.211z" class="secondary" style="display:block" transform="translate(429.802 -4951.914)"/><g style="display:block"><path d="m171.802 462.74-.333 23.894c-.623 44.588-32.143 82.756-75.81 91.797 0 0 0 0 0 0" class="secondary"/><path d="M171.812 461.748c0-26.876-20.958-48.664-46.812-48.664s-46.813 21.787-46.813 48.664c0 26.877 20.959 48.664 46.813 48.664 25.854 0 46.812-21.788 46.812-48.664z" class="secondary"/></g><g style="display:block"><path d="M164.128 771.344c0 21.611-17.518 39.13-39.128 39.13s-39.13-17.52-39.13-39.13c0-21.61 17.52-39.129 39.13-39.129 21.61 0 39.128 17.518 39.128 39.13z" class="secondary"/><path d="M147.031 803.661c16.253 8.084 27.41 24.879 27.41 44.291 0 27.326-22.115 49.443-49.441 49.443-27.326 0-49.443-22.117-49.443-49.443 0-19.412 11.158-36.207 27.411-44.29" class="secondary"/></g><path d="M1512.76 5964.154h78.15l-48.354 165.346" class="secondary" style="display:block" transform="translate(-1426.834 -4919.396)"/><g style="display:block"><path d="m78.373 1462.74.332-23.805c.62-44.422 32.024-82.446 75.527-91.454v-.001" class="secondary"/><path d="M78.363 1463.727c0 26.776 20.881 48.482 46.638 48.482 25.757 0 46.637-21.706 46.637-48.482s-20.88-48.482-46.637-48.482-46.638 21.706-46.638 48.482z" class="secondary"/></g><g style="display:block"><path d="m81.987 1742.65 4.155-82.68h78.07" class="secondary"/><path d="M81.987 1808.093c9.014 10.136 22.16 16.532 36.782 16.532 27.208 0 49.243-22.056 49.243-49.243 0-27.208-22.035-49.243-49.243-49.243-14.621 0-27.768 6.376-36.782 16.51" class="secondary"/></g><path d="M3434.325 5159.43h-105.564l82.115-107.936v165.852" class="secondary" style="display:block" transform="translate(-3256.543 -3076.07)"/><g style="display:block"><path d="M123.546 2364.918c27.609 0 49.999 18.944 49.999 42.198 0 23.234-22.378 42.073-49.987 42.073-21.73 0-40.22-11.669-47.104-27.965" class="secondary"/><path d="M81.026 2310.25c6.38-15.081 22.504-25.771 41.402-25.771 24.509 0 44.359 17.995 44.359 40.217 0 22.222-19.85 40.236-44.359 40.236m0 0h-9.948" class="secondary"/></g><path d="M1605.865 5216.88h-99.284l82.369-99.086c5.313-6.944 8.492-15.626 8.492-25.06 0-22.779-18.449-41.228-41.228-41.228-22.758 0-41.208 18.45-41.208 41.228" class="secondary" style="display:block" transform="translate(-1431.223 -2452.069)"/><path d="m566.629 5103.828 52.069-52.07v165" class="secondary" style="display:block" transform="translate(-479.663 -2140.069)"/></g><g clip-path="url(#h)" style="display:block" transform="translate(87.897 167.86) scale(.44082)"><path d="M-308.288 5220.314h6.973c25.522 0 46.211-20.689 46.211-46.211v-72.756c0-25.522-20.689-46.213-46.211-46.213h-6.973c-25.522 0-46.212 20.691-46.212 46.213v72.756c0 25.522 20.69 46.211 46.212 46.211z" class="secondary" style="display:block" transform="translate(429.802 -4951.914)"/><g style="display:block"><path d="m171.802 462.74-.333 23.894c-.623 44.588-32.143 82.756-75.81 91.797 0 0 0 0 0 0" class="secondary"/><path d="M171.812 461.748c0-26.876-20.958-48.664-46.812-48.664s-46.813 21.787-46.813 48.664c0 26.877 20.959 48.664 46.813 48.664 25.854 0 46.812-21.788 46.812-48.664z" class="secondary"/></g><g style="display:block"><path d="M164.128 771.344c0 21.611-17.518 39.13-39.128 39.13s-39.13-17.52-39.13-39.13c0-21.61 17.52-39.129 39.13-39.129 21.61 0 39.128 17.518 39.128 39.13z" class="secondary"/><path d="M147.031 803.661c16.253 8.084 27.41 24.879 27.41 44.291 0 27.326-22.115 49.443-49.441 49.443-27.326 0-49.443-22.117-49.443-49.443 0-19.412 11.158-36.207 27.411-44.29" class="secondary"/></g><path d="M1512.76 5964.154h78.15l-48.354 165.346" class="secondary" style="display:block" transform="translate(-1426.834 -4919.396)"/><g style="display:block"><path d="m78.373 1462.74.332-23.805c.62-44.422 32.024-82.446 75.527-91.454v-.001" class="secondary"/><path d="M78.363 1463.727c0 26.776 20.881 48.482 46.638 48.482 25.757 0 46.637-21.706 46.637-48.482s-20.88-48.482-46.637-48.482-46.638 21.706-46.638 48.482z" class="secondary"/></g><g style="display:block"><path d="m81.987 1742.65 4.155-82.68h78.07" class="secondary"/><path d="M81.987 1808.093c9.014 10.136 22.16 16.532 36.782 16.532 27.208 0 49.243-22.056 49.243-49.243 0-27.208-22.035-49.243-49.243-49.243-14.621 0-27.768 6.376-36.782 16.51" class="secondary"/></g><path d="M3434.325 5159.43h-105.564l82.115-107.936v165.852" class="secondary" style="display:block" transform="translate(-3256.543 -3076.07)"/><g style="display:block"><path d="M123.546 2364.918c27.609 0 49.999 18.944 49.999 42.198 0 23.234-22.378 42.073-49.987 42.073-21.73 0-40.22-11.669-47.104-27.965" class="secondary"/><path d="M81.026 2310.25c6.38-15.081 22.504-25.771 41.402-25.771 24.509 0 44.359 17.995 44.359 40.217 0 22.222-19.85 40.236-44.359 40.236m0 0h-9.948" class="secondary"/></g><path d="M1605.865 5216.88h-99.284l82.369-99.086c5.313-6.944 8.492-15.626 8.492-25.06 0-22.779-18.449-41.228-41.228-41.228-22.758 0-41.208 18.45-41.208 41.228" class="secondary" style="display:block" transform="translate(-1431.223 -2452.069)"/><path d="m566.629 5103.828 52.069-52.07v165" class="secondary" style="display:block" transform="translate(-479.663 -2140.069)"/></g><g clip-path="url(#i)" style="display:block" transform="translate(87.897 1545.973) scale(.44082)"><path d="M-308.288 5220.314h6.973c25.522 0 46.211-20.689 46.211-46.211v-72.756c0-25.522-20.689-46.213-46.211-46.213h-6.973c-25.522 0-46.212 20.691-46.212 46.213v72.756c0 25.522 20.69 46.211 46.212 46.211z" class="secondary" style="display:block" transform="translate(429.802 -4951.914)"/><g style="display:block"><path d="m171.802 462.74-.333 23.894c-.623 44.588-32.143 82.756-75.81 91.797 0 0 0 0 0 0" class="secondary"/><path d="M171.812 461.748c0-26.876-20.958-48.664-46.812-48.664s-46.813 21.787-46.813 48.664c0 26.877 20.959 48.664 46.813 48.664 25.854 0 46.812-21.788 46.812-48.664z" class="secondary"/></g><g style="display:block"><path d="M164.128 771.344c0 21.611-17.518 39.13-39.128 39.13s-39.13-17.52-39.13-39.13c0-21.61 17.52-39.129 39.13-39.129 21.61 0 39.128 17.518 39.128 39.13z" class="secondary"/><path d="M147.031 803.661c16.253 8.084 27.41 24.879 27.41 44.291 0 27.326-22.115 49.443-49.441 49.443-27.326 0-49.443-22.117-49.443-49.443 0-19.412 11.158-36.207 27.411-44.29" class="secondary"/></g><path d="M1512.76 5964.154h78.15l-48.354 165.346" class="secondary" style="display:block" transform="translate(-1426.834 -4919.396)"/><g style="display:block"><path d="m78.373 1462.74.332-23.805c.62-44.422 32.024-82.446 75.527-91.454v-.001" class="secondary"/><path d="M78.363 1463.727c0 26.776 20.881 48.482 46.638 48.482 25.757 0 46.637-21.706 46.637-48.482s-20.88-48.482-46.637-48.482-46.638 21.706-46.638 48.482z" class="secondary"/></g><g style="display:block"><path d="m81.987 1742.65 4.155-82.68h78.07" class="secondary"/><path d="M81.987 1808.093c9.014 10.136 22.16 16.532 36.782 16.532 27.208 0 49.243-22.056 49.243-49.243 0-27.208-22.035-49.243-49.243-49.243-14.621 0-27.768 6.376-36.782 16.51" class="secondary"/></g><path d="M3434.325 5159.43h-105.564l82.115-107.936v165.852" class="secondary" style="display:block" transform="translate(-3256.543 -3076.07)"/><g style="display:block"><path d="M123.546 2364.918c27.609 0 49.999 18.944 49.999 42.198 0 23.234-22.378 42.073-49.987 42.073-21.73 0-40.22-11.669-47.104-27.965" class="secondary"/><path d="M81.026 2310.25c6.38-15.081 22.504-25.771 41.402-25.771 24.509 0 44.359 17.995 44.359 40.217 0 22.222-19.85 40.236-44.359 40.236m0 0h-9.948" class="secondary"/></g><path d="M1605.865 5216.88h-99.284l82.369-99.086c5.313-6.944 8.492-15.626 8.492-25.06 0-22.779-18.449-41.228-41.228-41.228-22.758 0-41.208 18.45-41.208 41.228" class="secondary" style="display:block" transform="translate(-1431.223 -2452.069)"/><path d="m566.629 5103.828 52.069-52.07v165" class="secondary" style="display:block" transform="translate(-479.663 -2140.069)"/></g><g clip-path="url(#j)" style="display:block" transform="translate(302.897 -1069.64) scale(.44082)"><path d="M-308.288 5220.314h6.973c25.522 0 46.211-20.689 46.211-46.211v-72.756c0-25.522-20.689-46.213-46.211-46.213h-6.973c-25.522 0-46.212 20.691-46.212 46.213v72.756c0 25.522 20.69 46.211 46.212 46.211z" class="secondary" style="display:block" transform="translate(429.802 -4951.914)"/><g style="display:block"><path d="m171.802 462.74-.333 23.894c-.623 44.588-32.143 82.756-75.81 91.797 0 0 0 0 0 0" class="secondary"/><path d="M171.812 461.748c0-26.876-20.958-48.664-46.812-48.664s-46.813 21.787-46.813 48.664c0 26.877 20.959 48.664 46.813 48.664 25.854 0 46.812-21.788 46.812-48.664z" class="secondary"/></g><g style="display:block"><path d="M164.128 771.344c0 21.611-17.518 39.13-39.128 39.13s-39.13-17.52-39.13-39.13c0-21.61 17.52-39.129 39.13-39.129 21.61 0 39.128 17.518 39.128 39.13z" class="secondary"/><path d="M147.031 803.661c16.253 8.084 27.41 24.879 27.41 44.291 0 27.326-22.115 49.443-49.441 49.443-27.326 0-49.443-22.117-49.443-49.443 0-19.412 11.158-36.207 27.411-44.29" class="secondary"/></g><path d="M1512.76 5964.154h78.15l-48.354 165.346" class="secondary" style="display:block" transform="translate(-1426.834 -4919.396)"/><g style="display:block"><path d="m78.373 1462.74.332-23.805c.62-44.422 32.024-82.446 75.527-91.454v-.001" class="secondary"/><path d="M78.363 1463.727c0 26.776 20.881 48.482 46.638 48.482 25.757 0 46.637-21.706 46.637-48.482s-20.88-48.482-46.637-48.482-46.638 21.706-46.638 48.482z" class="secondary"/></g><g style="display:block"><path d="m81.987 1742.65 4.155-82.68h78.07" class="secondary"/><path d="M81.987 1808.093c9.014 10.136 22.16 16.532 36.782 16.532 27.208 0 49.243-22.056 49.243-49.243 0-27.208-22.035-49.243-49.243-49.243-14.621 0-27.768 6.376-36.782 16.51" class="secondary"/></g><path d="M3434.325 5159.43h-105.564l82.115-107.936v165.852" class="secondary" style="display:block" transform="translate(-3256.543 -3076.07)"/><g style="display:block"><path d="M123.546 2364.918c27.609 0 49.999 18.944 49.999 42.198 0 23.234-22.378 42.073-49.987 42.073-21.73 0-40.22-11.669-47.104-27.965" class="secondary"/><path d="M81.026 2310.25c6.38-15.081 22.504-25.771 41.402-25.771 24.509 0 44.359 17.995 44.359 40.217 0 22.222-19.85 40.236-44.359 40.236m0 0h-9.948" class="secondary"/></g><path d="M1605.865 5216.88h-99.284l82.369-99.086c5.313-6.944 8.492-15.626 8.492-25.06 0-22.779-18.449-41.228-41.228-41.228-22.758 0-41.208 18.45-41.208 41.228" class="secondary" style="display:block" transform="translate(-1431.223 -2452.069)"/><path d="m566.629 5103.828 52.069-52.07v165" class="secondary" style="display:block" transform="translate(-479.663 -2140.069)"/></g><g clip-path="url(#k)" style="display:block" transform="translate(302.897 308.473) scale(.44082)"><path d="M-308.288 5220.314h6.973c25.522 0 46.211-20.689 46.211-46.211v-72.756c0-25.522-20.689-46.213-46.211-46.213h-6.973c-25.522 0-46.212 20.691-46.212 46.213v72.756c0 25.522 20.69 46.211 46.212 46.211z" class="secondary" style="display:block" transform="translate(429.802 -4951.914)"/><g style="display:block"><path d="m171.802 462.74-.333 23.894c-.623 44.588-32.143 82.756-75.81 91.797 0 0 0 0 0 0" class="secondary"/><path d="M171.812 461.748c0-26.876-20.958-48.664-46.812-48.664s-46.813 21.787-46.813 48.664c0 26.877 20.959 48.664 46.813 48.664 25.854 0 46.812-21.788 46.812-48.664z" class="secondary"/></g><g style="display:block"><path d="M164.128 771.344c0 21.611-17.518 39.13-39.128 39.13s-39.13-17.52-39.13-39.13c0-21.61 17.52-39.129 39.13-39.129 21.61 0 39.128 17.518 39.128 39.13z" class="secondary"/><path d="M147.031 803.661c16.253 8.084 27.41 24.879 27.41 44.291 0 27.326-22.115 49.443-49.441 49.443-27.326 0-49.443-22.117-49.443-49.443 0-19.412 11.158-36.207 27.411-44.29" class="secondary"/></g><path d="M1512.76 5964.154h78.15l-48.354 165.346" class="secondary" style="display:block" transform="translate(-1426.834 -4919.396)"/><g style="display:block"><path d="m78.373 1462.74.332-23.805c.62-44.422 32.024-82.446 75.527-91.454v-.001" class="secondary"/><path d="M78.363 1463.727c0 26.776 20.881 48.482 46.638 48.482 25.757 0 46.637-21.706 46.637-48.482s-20.88-48.482-46.637-48.482-46.638 21.706-46.638 48.482z" class="secondary"/></g><g style="display:block"><path d="m81.987 1742.65 4.155-82.68h78.07" class="secondary"/><path d="M81.987 1808.093c9.014 10.136 22.16 16.532 36.782 16.532 27.208 0 49.243-22.056 49.243-49.243 0-27.208-22.035-49.243-49.243-49.243-14.621 0-27.768 6.376-36.782 16.51" class="secondary"/></g><path d="M3434.325 5159.43h-105.564l82.115-107.936v165.852" class="secondary" style="display:block" transform="translate(-3256.543 -3076.07)"/><g style="display:block"><path d="M123.546 2364.918c27.609 0 49.999 18.944 49.999 42.198 0 23.234-22.378 42.073-49.987 42.073-21.73 0-40.22-11.669-47.104-27.965" class="secondary"/><path d="M81.026 2310.25c6.38-15.081 22.504-25.771 41.402-25.771 24.509 0 44.359 17.995 44.359 40.217 0 22.222-19.85 40.236-44.359 40.236m0 0h-9.948" class="secondary"/></g><path d="M1605.865 5216.88h-99.284l82.369-99.086c5.313-6.944 8.492-15.626 8.492-25.06 0-22.779-18.449-41.228-41.228-41.228-22.758 0-41.208 18.45-41.208 41.228" class="secondary" style="display:block" transform="translate(-1431.223 -2452.069)"/><path d="m566.629 5103.828 52.069-52.07v165" class="secondary" style="display:block" transform="translate(-479.663 -2140.069)"/></g></g><path stroke="#121331" stroke-width="12.04" d="M160.119 80.06h-320.238V-80.06h320.238V80.06z" class="primary" style="display:block" transform="translate(250 250)"/><path stroke="#121331" stroke-width="12.04" d="M0-80.06V80.06" class="primary" style="display:block" transform="translate(196.627 250)"/><path stroke="#121331" stroke-width="12.04" d="M0-80.06V80.06" class="primary" style="display:block" transform="translate(303.373 250)"/></g><g id="a" style="display:block"><path fill-opacity="0" stroke="#121331" stroke-linecap="round" stroke-linejoin="round" stroke-width="0" d="M410.119 330.06H89.881V169.94h320.238v160.12z" class="primary"/><path fill="red" d="M410.119 330.06H89.881V169.94h320.238v160.12z"/></g><filter id="o" width="300%" height="300%" x="-100%" y="-100%"><feGaussianBlur result="filter_result_0" stdDeviation="52.5 52.5"/></filter></defs><g clip-path="url(#l)"><g clip-path="url(#m)" style="display:block" transform="translate(-35 -35)"><g mask="url(#n)" style="display:block"><g filter="url(#o)" transform="rotate(-94 245.756 -9.065) scale(2.4)"><g class="design"><path fill="#4BE1EC" d="M0-250c137.975 0 250 112.025 250 250S137.975 250 0 250-250 137.975-250 0-137.975-250 0-250z" class="primary"/></g><g class="design"><path fill="#CB5EEE" d="M113.242-295.384c97.478 0 176.5 79.022 176.5 176.5s-79.022 176.5-176.5 176.5c-43.948 0-74.396-34.057-105.29-60.631-37.631-32.369-71.21-62.338-71.21-115.869 0-97.478 79.022-176.5 176.5-176.5z" class="secondary"/></g></g></g></g></g></svg>